<svg xmlns="http://www.w3.org/2000/svg" version="1.1" xmlns:xlink="http://www.w3.org/1999/xlink" xmlns:svgjs="http://svgjs.dev/svgjs" width="1500" height="204" viewBox="0 0 1500 204"><g transform="matrix(1,0,0,1,-0.9090909090909918,-1.3824450543990991)"><svg viewBox="0 0 396 54" data-background-color="#ffffff" preserveAspectRatio="xMidYMid meet" height="204" width="1500" xmlns="http://www.w3.org/2000/svg" xmlns:xlink="http://www.w3.org/1999/xlink"><g id="tight-bounds" transform="matrix(1,0,0,1,0.2400000000000091,0.36594133792917205)"><svg viewBox="0 0 395.52 53.26811732414165" height="53.26811732414165" width="395.52"><g><svg viewBox="0 0 501.64912047891494 67.56144873893435" height="53.26811732414165" width="395.52"><g transform="matrix(1,0,0,1,0,9.33736375480207)"><svg viewBox="0 0 395.52 48.886721229330206" height="48.886721229330206" width="395.52"><g id="textblocktransform"><svg viewBox="0 0 395.52 48.886721229330206" height="48.886721229330206" width="395.52" id="textblock"><g><svg viewBox="0 0 395.52 48.886721229330206" height="48.886721229330206" width="395.52"><g transform="matrix(1,0,0,1,0,0)"><svg width="395.52" viewBox="4 -36.4 299.33 37" height="48.886721229330206" data-palette-color="#000000"><g class="wordmark-text-0" data-fill-palette-color="primary" id="text-0"><path d="M18.55 0.6L18.55 0.6Q13.65 0.6 10.55-1.23 7.45-3.05 5.98-6.1 4.5-9.15 4.5-12.9L4.5-12.9 4.5-31 4-35 9.25-35 8.75-31 8.75-13.1Q8.75-8.7 11.03-6 13.3-3.3 18.55-3.3L18.55-3.3Q23.75-3.3 26-6 28.25-8.7 28.25-13.1L28.25-13.1 28.25-31 27.75-35 33-35 32.5-31 32.5-12.9Q32.5-9.15 31.03-6.1 29.55-3.05 26.48-1.23 23.4 0.6 18.55 0.6ZM63.4 0L58.2 0 58.7-4 58.7-16.75Q58.7-19.5 57.15-20.9 55.6-22.3 52.55-22.3L52.55-22.3Q50.15-22.3 48.45-21.6 46.75-20.9 45.67-20.03 44.6-19.15 44.05-18.55L44.05-18.55 44.05-21.45 49.45-25.55Q50.45-25.8 51.5-25.95 52.55-26.1 53.65-26.1L53.65-26.1Q56.05-26.1 58.15-25.28 60.25-24.45 61.57-22.45 62.9-20.45 62.9-16.9L62.9-16.9 62.9-4 63.4 0ZM46 0L40.8 0 41.3-4 41.3-21.6 40.8-25.5 44.8-25.5 45.5-22.55 45.5-4 46 0ZM75.7-29.7L75.7-29.7Q74.5-29.7 73.65-30.48 72.8-31.25 72.8-32.6L72.8-32.6Q72.8-33.95 73.65-34.73 74.5-35.5 75.7-35.5L75.7-35.5Q76.9-35.5 77.75-34.73 78.6-33.95 78.6-32.6L78.6-32.6Q78.6-31.25 77.75-30.48 76.9-29.7 75.7-29.7ZM79.1 0L73.9 0 74.4-4 74.4-22.1 69.2-22.1 69.2-25.5 79.1-25.5 78.6-21.5 78.6-4 79.1 0ZM99.09 0L94.09 0 84.69-25.5 89.69-25.5 90.79-21.5 96.19-5.05 96.44-2.7 96.74-2.7 96.99-5.05 102.39-21.5 103.49-25.5 108.49-25.5 99.09 0ZM112.49-12.8L112.49-12.8Q112.49-17.75 114.12-20.68 115.74-23.6 118.39-24.85 121.04-26.1 124.04-26.1L124.04-26.1Q127.49-26.1 129.82-24.73 132.14-23.35 133.32-20.83 134.49-18.3 134.49-14.8L134.49-14.8Q134.49-13.8 134.39-12.95 134.29-12.1 134.14-11.35L134.14-11.35 114.69-11.35 114.69-12.25 119.19-14.75 130.24-14.75Q130.24-17 129.77-18.75 129.29-20.5 127.94-21.5 126.59-22.5 123.99-22.5L123.99-22.5Q121.29-22.5 119.72-21.33 118.14-20.15 117.47-18.05 116.79-15.95 116.79-13.15L116.79-13.15Q116.79-9.8 117.54-7.75 118.29-5.7 119.54-4.7 120.79-3.7 122.29-3.35 123.79-3 125.29-3L125.29-3Q127.64-3 129.37-3.48 131.09-3.95 132.44-4.75L132.44-4.75 133.24-4.25 133.24-0.65Q131.69-0.1 129.82 0.25 127.94 0.6 125.74 0.6L125.74 0.6Q123.34 0.6 120.97 0.03 118.59-0.55 116.69-2 114.79-3.45 113.64-6.08 112.49-8.7 112.49-12.8ZM145.84 0L140.64 0 141.14-4 141.14-21.5 140.64-25.5 143.99-25.5 144.79-22.55 145.34-22.55 145.34-4 145.84 0ZM144.29-16.45L144.29-16.45 144.29-21.7 148.69-25.45Q150.49-26.1 152.39-26.1L152.39-26.1Q153.24-26.1 154.14-25.98 155.04-25.85 155.99-25.45L155.99-25.45 155.99-22.1 155.19-21.6Q154.34-21.9 153.56-22 152.79-22.1 152.14-22.1L152.14-22.1Q149.19-22.1 147.34-20.58 145.49-19.05 144.29-16.45ZM177.89-24.9L177.89-24.9 177.89-21.1 177.09-20.6Q175.69-21.5 173.99-22 172.29-22.5 170.09-22.5L170.09-22.5Q168.59-22.5 167.36-22.23 166.14-21.95 165.41-21.28 164.69-20.6 164.69-19.4L164.69-19.4Q164.69-17.95 165.74-17.1 166.79-16.25 168.46-15.65 170.14-15.05 171.99-14.45 173.84-13.85 175.51-12.95 177.19-12.05 178.24-10.55 179.29-9.05 179.29-6.65L179.29-6.65Q179.29-3.8 177.81-2.23 176.34-0.65 173.94-0.03 171.54 0.6 168.84 0.6L168.84 0.6Q166.09 0.6 163.99 0.15 161.89-0.3 160.39-0.8L160.39-0.8 160.39-4.5 161.19-5Q162.79-4.05 164.64-3.53 166.49-3 169.19-3L169.19-3Q170.74-3 172.09-3.25 173.44-3.5 174.31-4.25 175.19-5 175.19-6.45L175.19-6.45Q175.19-8.1 174.14-9.05 173.09-10 171.41-10.6 169.74-11.2 167.86-11.75 165.99-12.3 164.31-13.13 162.64-13.95 161.59-15.4 160.54-16.85 160.54-19.2L160.54-19.2Q160.54-21.35 161.41-22.7 162.29-24.05 163.76-24.8 165.24-25.55 167.01-25.83 168.79-26.1 170.59-26.1L170.59-26.1Q172.79-26.1 174.61-25.78 176.44-25.45 177.89-24.9ZM184.48-12.8L184.48-12.8Q184.48-17.75 186.11-20.68 187.73-23.6 190.38-24.85 193.03-26.1 196.03-26.1L196.03-26.1Q199.48-26.1 201.81-24.73 204.13-23.35 205.31-20.83 206.48-18.3 206.48-14.8L206.48-14.8Q206.48-13.8 206.38-12.95 206.28-12.1 206.13-11.35L206.13-11.35 186.68-11.35 186.68-12.25 191.18-14.75 202.23-14.75Q202.23-17 201.76-18.75 201.28-20.5 199.93-21.5 198.58-22.5 195.98-22.5L195.98-22.5Q193.28-22.5 191.71-21.33 190.13-20.15 189.46-18.05 188.78-15.95 188.78-13.15L188.78-13.15Q188.78-9.8 189.53-7.75 190.28-5.7 191.53-4.7 192.78-3.7 194.28-3.35 195.78-3 197.28-3L197.28-3Q199.63-3 201.36-3.48 203.08-3.95 204.43-4.75L204.43-4.75 205.23-4.25 205.23-0.65Q203.68-0.1 201.81 0.25 199.93 0.6 197.73 0.6L197.73 0.6Q195.33 0.6 192.96 0.03 190.58-0.55 188.68-2 186.78-3.45 185.63-6.08 184.48-8.7 184.48-12.8ZM242.33 0L237.08 0 237.58-4 237.58-31 237.08-35 242.33-35 241.83-31 241.83-4 242.33 0ZM218.58 0L213.33 0 213.83-4 213.83-31 213.33-35 218.58-35 218.08-31 218.08-4 218.58 0ZM240.38-16.35L215.23-16.35 215.23-20.25 240.38-20.25 240.38-16.35ZM260.23 0.6L260.23 0.6Q258.68 0.6 257 0.2 255.33-0.2 253.9-1.18 252.48-2.15 251.6-3.88 250.73-5.6 250.73-8.3L250.73-8.3 250.73-21.5 250.23-25.5 255.43-25.5 254.93-21.5 254.93-8.95Q254.93-6.45 255.75-5.15 256.58-3.85 257.95-3.43 259.33-3 260.98-3L260.98-3Q264.18-3 265.93-3.98 267.68-4.95 269.03-6.35L269.03-6.35 269.03-3.55 264.48-0.05Q263.53 0.25 262.48 0.43 261.43 0.6 260.23 0.6ZM272.83 0L268.68 0 268.13-3.15 268.13-21.5 267.63-25.5 272.83-25.5 272.33-21.5 272.33-4 272.83 0ZM292.13 0.6L292.13 0.6Q290.78 0.6 289.65 0.4 288.53 0.2 287.83 0L287.83 0 282.83-4.15 282.83-7.4Q284.68-4.95 286.78-3.98 288.88-3 291.33-3L291.33-3Q293.88-3 295.6-3.95 297.33-4.9 298.18-7 299.03-9.1 299.03-12.55L299.03-12.55Q299.03-17.45 297.13-19.98 295.23-22.5 291.08-22.5L291.08-22.5Q288.18-22.5 286.08-21.4 283.98-20.3 282.63-18.85L282.63-18.85 282.63-21.65 287.88-25.45Q288.83-25.75 289.83-25.93 290.83-26.1 291.93-26.1L291.93-26.1Q295.03-26.1 297.6-24.65 300.18-23.2 301.75-20.25 303.33-17.3 303.33-12.85L303.33-12.85Q303.33-8.9 302-5.85 300.68-2.8 298.18-1.1 295.68 0.6 292.13 0.6ZM283.88 0L279.93 0 280.43-4 280.43-32.4 279.93-36.4 285.13-36.4 284.63-32.4 284.63-2.6 283.88 0Z" fill="#000000" data-fill-palette-color="primary"></path></g></svg></g></svg></g></svg></g></svg></g><g transform="matrix(1,0,0,1,407.06098160093535,0)"><svg viewBox="0 0 94.58813887797959 67.56144873893435" height="67.56144873893435" width="94.58813887797959"><g><svg xmlns="http://www.w3.org/2000/svg" xmlns:xlink="http://www.w3.org/1999/xlink" version="1.1" x="0" y="0" viewBox="0 0.000022431396140776272 100 71.42697756860386" enable-background="new 0 0 100 71.427" xml:space="preserve" id="icon-0" width="94.58813887797959" height="67.56144873893435" class="icon-icon-0" data-fill-palette-color="accent"><path d="M50.495 8.23C47.038 4.923 27.174-6.565 0 5.141V69.357H41.172C42.585 70.568 45.944 71.427 49.877 71.427 53.802 71.427 57.169 70.568 58.587 69.357H100V5.141C73.945-6.343 53.125 5.805 50.495 8.23M46.803 65.359C46.803 63.158 27.474 50.294 5.156 64.33V9.877C9.576 7.341 15.521 5.788 22.083 5.788 35.742 5.788 46.803 10.27 46.803 18.584zM95.163 64.33C72.845 50.294 53.528 63.158 53.528 65.359V18.585C53.528 10.271 64.59 5.789 78.235 5.789 84.797 5.789 90.742 7.342 95.163 9.878z" fill="#000000" data-fill-palette-color="accent"></path></svg></g></svg></g></svg></g><defs></defs></svg><rect width="395.52" height="53.26811732414165" fill="none" stroke="none" visibility="hidden"></rect></g></svg></g></svg>